<?xml version="1.0" encoding="UTF-8" standalone="no"?>
<svg
   xmlns:dc="http://purl.org/dc/elements/1.1/"
   xmlns:cc="http://creativecommons.org/ns#"
   xmlns:rdf="http://www.w3.org/1999/02/22-rdf-syntax-ns#"
   xmlns:svg="http://www.w3.org/2000/svg"
   xmlns="http://www.w3.org/2000/svg"
   xmlns:sodipodi="http://sodipodi.sourceforge.net/DTD/sodipodi-0.dtd"
   xmlns:inkscape="http://www.inkscape.org/namespaces/inkscape"
   sodipodi:docname="logo.svg"
   inkscape:version="1.0 (4035a4fb49, 2020-05-01)"
   id="svg176"
   version="1.1"
   viewBox="0 0 264.58333 264.58334"
   height="1000"
   width="1000">
  <defs
     id="defs170" />
  <sodipodi:namedview
     inkscape:window-maximized="1"
     inkscape:window-y="27"
     inkscape:window-x="0"
     inkscape:window-height="1016"
     inkscape:window-width="1920"
     units="px"
     showgrid="false"
     inkscape:document-rotation="0"
     inkscape:current-layer="layer1"
     inkscape:document-units="px"
     inkscape:cy="992"
     inkscape:cx="1264"
     inkscape:zoom="0.15996094"
     inkscape:pageshadow="2"
     inkscape:pageopacity="0.0"
     borderopacity="1.0"
     bordercolor="#666666"
     pagecolor="#ffffff"
     id="base" />
  <metadata
     id="metadata173">
    <rdf:RDF>
      <cc:Work
         rdf:about="">
        <dc:format>image/svg+xml</dc:format>
        <dc:type
           rdf:resource="http://purl.org/dc/dcmitype/StillImage" />
        <dc:title></dc:title>
      </cc:Work>
    </rdf:RDF>
  </metadata>
  <g
     id="layer1"
     inkscape:groupmode="layer"
     inkscape:label="Layer 1">
    <rect
       style="fill:#159957;stroke-width:0.795745"
       id="rect168"
       width="337.84344"
       height="337.84344"
       x="-36.630054"
       y="-36.630054" />
    <g
       style="fill:#ffffff"
       id="g166"
       transform="matrix(5.1948731,2.9992613,-2.9992613,5.1948731,87.421182,-79.753839)">
      <g
         style="fill:#ffffff"
         id="g110">
        <path
           id="path108"
           d="M 34.583,14.133 C 33.854,13.13 33.166,12.181 32.595,11.257 31.046,8.75 30.735,5.68 30.746,3.545 30.752,2.196 30.447,1.204 29.843,0.595 28.96,-0.292 27.508,-0.186 26.035,0.904 c -3.979,2.95 -9.278,7.27 -11.927,11.098 -5.16,7.455 -6.84,15.805 -4.859,24.147 1.283,5.408 5.576,9.105 8.953,11.255 1.736,1.104 3.787,2.04 4.478,2.04 h 0.006 l 0.457,-0.02 0.513,-0.636 -0.141,-0.739 C 23.242,46.7 22.726,45.06 22.181,43.32 18.819,32.564 19.951,23.942 22.25,18.961 c -1.102,5.074 -1.569,14.006 1.884,23.782 0.594,1.686 1.056,3.333 1.372,4.893 l 0.119,0.623 c 0.034,0.197 0.227,0.84 1.227,0.84 0.83,0 2.573,-0.448 4.438,-1.438 5.163,-2.738 8.331,-6.57 9.166,-11.085 2.107,-11.445 -2.317,-17.542 -5.873,-22.443 z m 4.178,22.129 c -0.929,5.024 -5.015,8.146 -8.278,9.879 -1.355,0.72 -2.558,1.078 -3.283,1.19 L 27.194,47.303 C 26.862,45.658 26.379,43.934 25.756,42.17 21.423,29.902 23.301,18.713 25.27,15.447 c 0.133,-0.223 0.489,-0.814 0.16,-1.393 l -0.32,-0.446 h -0.479 c -0.298,0 -0.592,0.126 -0.95,0.41 -3.128,2.478 -8.264,13.426 -3.14,29.813 0.37,1.178 0.75,2.387 1.028,3.446 C 20.998,47.018 20.126,46.583 19.128,45.948 16.023,43.971 12.077,40.596 10.926,35.749 9.061,27.895 10.652,20.02 15.525,12.978 18.044,9.341 23.19,5.155 27.064,2.283 c 0.689,-0.512 1.1,-0.588 1.279,-0.588 0.123,0 0.205,0.033 0.283,0.111 0.123,0.124 0.406,0.54 0.402,1.729 -0.021,3.428 0.688,6.33 2.104,8.624 0.601,0.969 1.306,1.941 2.062,2.983 3.359,4.635 7.544,10.401 5.567,21.12 z"
           style="fill:#ffffff" />
      </g>
      <g
         style="fill:#ffffff"
         id="g112" />
      <g
         style="fill:#ffffff"
         id="g114" />
      <g
         style="fill:#ffffff"
         id="g116" />
      <g
         style="fill:#ffffff"
         id="g118" />
      <g
         style="fill:#ffffff"
         id="g120" />
      <g
         style="fill:#ffffff"
         id="g122" />
      <g
         style="fill:#ffffff"
         id="g124" />
      <g
         style="fill:#ffffff"
         id="g126" />
      <g
         style="fill:#ffffff"
         id="g128" />
      <g
         style="fill:#ffffff"
         id="g130" />
      <g
         style="fill:#ffffff"
         id="g132" />
      <g
         style="fill:#ffffff"
         id="g134" />
      <g
         style="fill:#ffffff"
         id="g136" />
      <g
         style="fill:#ffffff"
         id="g138" />
      <g
         style="fill:#ffffff"
         id="g140" />
    </g>
  </g>
</svg>
